<svg version="1.1" id="Layer_1" xmlns="http://www.w3.org/2000/svg" xmlns:xlink="http://www.w3.org/1999/xlink" x="0px" y="0px" width="100%" viewBox="0 0 1024 1536" enable-background="new 0 0 1024 1536" xml:space="preserve">

<path fill="#9647A9" opacity="1.000000" stroke="none" d="
M694.819824,365.167542 
	C701.426331,368.113770 708.223267,370.699005 714.607971,374.065857 
	C751.276672,393.402374 785.152039,416.788147 816.062195,444.460571 
	C864.369141,487.707489 900.737732,539.414490 926.243164,598.937561 
	C938.086914,626.577759 947.139954,655.113159 952.451782,684.638184 
	C955.798828,703.242249 958.179199,722.196777 958.816101,741.067566 
	C959.634094,765.304321 959.333130,789.692017 957.579773,813.874390 
	C955.262817,845.830627 947.666016,876.866760 937.567444,907.334167 
	C920.924988,957.544189 895.218750,1002.699402 862.752625,1044.197632 
	C858.760803,1049.299927 854.388245,1054.104248 849.478638,1059.061157 
	C848.024231,1058.716309 847.240906,1058.424316 846.548584,1057.987915 
	C829.555542,1047.276489 812.917419,1035.944702 795.488403,1025.998657 
	C778.621948,1016.373474 760.994446,1008.068176 743.580139,999.427246 
	C739.859314,997.581055 738.641113,995.858154 739.465210,991.423828 
	C741.328674,981.396362 741.112244,971.378723 736.916504,961.664734 
	C724.958252,933.978882 705.760437,912.041016 682.928284,892.937805 
	C668.304138,880.702026 652.123657,870.983276 634.823303,863.047485 
	C650.299500,850.111023 663.835632,835.808289 675.322815,819.510132 
	C689.095520,799.969116 696.023499,777.689087 701.981079,754.968628 
	C704.066772,747.014709 706.107544,739.049072 708.197815,730.976807 
	C711.135071,732.123596 713.363403,733.501892 715.739502,733.839600 
	C732.464478,736.216431 747.090149,732.052246 756.949524,717.710449 
	C778.275879,686.688232 785.787048,652.824524 775.852356,615.901062 
	C771.811096,600.881226 761.402893,592.943298 747.326843,594.073425 
	C744.242615,594.321045 741.230713,595.469727 738.082520,595.751404 
	C738.588867,585.853210 739.773926,576.401917 739.688171,566.962219 
	C739.506775,547.016357 738.933044,527.064087 738.020813,507.137329 
	C736.817139,480.841339 732.633118,454.961090 726.064514,429.459137 
	C721.013184,409.847992 714.343750,390.988983 701.811401,374.700317 
	C699.409119,371.577972 697.146729,368.347900 694.819824,365.167542 
z" data-index="1" style="opacity: 1;"></path>
<path fill="#9647A9" opacity="1.000000" stroke="none" d="
M177.390594,1062.242432 
	C169.389801,1052.734619 161.032043,1043.501831 153.454941,1033.667603 
	C130.389801,1003.731201 111.563057,971.289185 97.334435,936.244934 
	C88.202950,913.754578 81.001396,890.684937 75.526375,866.991455 
	C65.930695,825.465698 63.254654,783.420532 65.324455,741.050110 
	C66.909920,708.594360 72.492912,676.755554 81.499084,645.427368 
	C97.870338,588.479309 125.228035,537.425415 162.462433,491.576172 
	C184.369888,464.600006 209.353394,440.703766 237.480530,420.038757 
	C236.775879,427.495911 235.259598,434.497620 234.512909,441.580475 
	C233.958801,446.836578 234.403885,452.197998 234.403885,458.576599 
	C251.288940,443.467407 271.064606,444.091095 290.411957,442.898743 
	C290.691010,444.101013 290.881958,444.444061 290.822662,444.736389 
	C285.321594,471.869293 283.584351,499.425964 282.401611,526.967102 
	C281.530090,547.262268 282.213654,567.624329 282.217163,587.956604 
	C282.217590,590.416870 282.298218,592.877197 281.964478,595.322754 
	C276.361176,595.167908 270.902252,593.987244 265.955200,595.094177 
	C253.970657,597.775757 248.994080,607.707214 246.399033,618.250000 
	C237.617218,653.927612 244.470901,686.990417 265.214081,717.060852 
	C276.411377,733.293030 295.516266,738.688110 313.899811,731.636963 
	C314.348480,732.854370 314.888580,734.053345 315.236755,735.305603 
	C318.839722,748.264771 322.183746,761.300659 326.038177,774.184082 
	C335.033325,804.250427 351.145844,829.838806 374.824371,850.575989 
	C380.434143,855.488892 385.901184,860.564758 391.117035,865.788086 
	C379.234009,872.563049 367.024567,878.207947 356.234497,885.855469 
	C333.186523,902.190979 314.277405,922.634644 300.369232,947.437622 
	C291.842773,962.643188 286.751953,978.524658 291.264679,996.126526 
	C292.075317,999.288574 290.506897,1000.040588 288.179596,1001.218445 
	C261.467682,1014.737366 234.638382,1028.043213 208.239746,1042.153076 
	C197.457718,1047.915894 187.644531,1055.491577 177.390594,1062.242432 
z" data-index="2"></path>
<path fill="#283756" opacity="1.000000" stroke="none" d="
M177.522308,1062.573730 
	C187.644531,1055.491577 197.457718,1047.915894 208.239746,1042.153076 
	C234.638382,1028.043213 261.467682,1014.737366 288.179596,1001.218445 
	C290.506897,1000.040588 292.075317,999.288574 291.264679,996.126526 
	C286.751953,978.524658 291.842773,962.643188 300.369232,947.437622 
	C314.277405,922.634644 333.186523,902.190979 356.234497,885.855469 
	C367.024567,878.207947 379.234009,872.563049 391.348083,866.037964 
	C394.579468,868.355469 397.262939,870.645447 399.807312,873.394653 
	C399.467590,881.293396 399.266937,888.732910 398.786102,896.222961 
	C387.326080,902.951843 377.241486,910.494751 370.108032,922.007935 
	C362.275604,934.649292 360.462189,948.150330 362.391205,962.103699 
	C365.013031,981.068054 373.680756,997.663696 386.447784,1011.799438 
	C406.554901,1034.062256 430.133820,1051.585938 458.556488,1061.992798 
	C469.062439,1065.839600 479.694183,1069.343994 490.187195,1073.224609 
	C497.562164,1075.952271 505.117767,1077.081787 513.205811,1077.170166 
	C515.117249,1077.657837 516.752441,1078.000977 518.381958,1077.975952 
	C532.971069,1077.752563 546.615723,1073.331909 559.901428,1067.916138 
	C568.398010,1064.452637 576.355530,1059.688354 584.769287,1055.996094 
	C605.963928,1046.695190 622.615601,1031.818848 636.930908,1014.058899 
	C645.628052,1003.268921 651.772583,991.111755 656.744507,978.127686 
	C662.007751,964.382874 663.719971,950.412781 661.049072,936.225037 
	C657.892700,919.458557 648.370667,906.595398 633.622925,897.822693 
	C628.915588,895.022583 626.177185,891.773193 626.790283,885.594055 
	C627.404907,879.399597 626.715210,873.091736 629.924622,867.160278 
	C629.976013,866.968872 630.302246,866.743469 630.302246,866.743469 
	C630.302246,866.743469 630.694702,866.799316 630.808044,866.947266 
	C631.019653,867.162964 631.117920,867.230774 631.216187,867.298645 
	C631.075012,867.103516 630.933838,866.908447 630.890015,866.401733 
	C632.220215,865.167175 633.453064,864.244263 634.685974,863.321350 
	C652.123657,870.983276 668.304138,880.702026 682.928284,892.937805 
	C705.760437,912.041016 724.958252,933.978882 736.916504,961.664734 
	C741.112244,971.378723 741.328674,981.396362 739.465210,991.423828 
	C738.641113,995.858154 739.859314,997.581055 743.580139,999.427246 
	C760.994446,1008.068176 778.621948,1016.373474 795.488403,1025.998657 
	C812.917419,1035.944702 829.555542,1047.276489 846.548584,1057.987915 
	C847.240906,1058.424316 848.024231,1058.716309 849.157776,1059.086548 
	C835.585449,1073.518066 822.321167,1088.705811 807.525391,1102.216431 
	C761.544067,1144.203857 708.248291,1173.863647 649.213135,1193.297974 
	C638.193054,1196.925781 626.899536,1199.722900 615.033081,1202.968262 
	C613.887329,1203.003906 613.440735,1202.974731 612.996765,1202.480469 
	C612.999268,1163.049194 613.015503,1124.083008 612.951599,1085.117065 
	C612.948303,1083.119629 614.258728,1080.038696 609.978882,1079.765381 
	C607.134460,1072.318481 601.257446,1069.118408 594.697876,1072.190430 
	C592.012451,1073.447998 590.254761,1076.686646 587.747070,1078.926025 
	C586.951477,1079.773926 586.076599,1080.719116 586.074890,1081.665771 
	C586.003601,1122.101562 585.992676,1162.537476 586.082520,1202.973267 
	C586.085510,1204.305908 587.208130,1205.636353 587.891235,1207.287231 
	C587.842041,1208.026489 587.710449,1208.446411 587.578796,1208.866211 
	C571.874573,1210.557739 556.199768,1212.622314 540.459839,1213.860352 
	C510.809143,1216.192627 481.274902,1214.038208 451.824158,1210.473755 
	C448.884430,1210.118042 445.994781,1209.348633 442.663361,1208.688354 
	C442.663361,1206.975098 442.663940,1205.350342 442.663330,1203.725464 
	C442.648438,1163.911621 442.486359,1124.096802 442.746857,1084.284790 
	C442.796844,1076.643555 438.374054,1071.912476 433.190887,1071.240234 
	C426.929321,1070.428101 422.952606,1073.230591 419.974945,1080.603760 
	C418.981415,1080.607788 418.503296,1080.508423 418.025177,1080.409058 
	C418.018799,1081.073730 418.006866,1081.738525 418.006836,1082.403198 
	C418.004944,1121.293945 417.985535,1160.184692 418.083099,1199.075195 
	C418.086365,1200.379150 419.272369,1201.680176 419.907074,1202.982544 
	C419.045105,1203.404663 418.035339,1204.361816 417.342682,1204.170532 
	C399.129547,1199.141479 380.624939,1194.921997 362.820190,1188.703125 
	C290.991852,1163.615356 230.362213,1121.624023 179.510254,1065.251587 
	C178.843628,1064.512573 178.270706,1063.689087 177.522308,1062.573730 
z" data-index="3" style="opacity: 1;"></path>
<path fill="#3D2527" opacity="1.000000" stroke="none" d="
M282.341675,595.337463 
	C282.298218,592.877197 282.217590,590.416870 282.217163,587.956604 
	C282.213654,567.624329 281.530090,547.262268 282.401611,526.967102 
	C283.584351,499.425964 285.321594,471.869293 290.822662,444.736389 
	C290.881958,444.444061 290.691010,444.101013 290.411957,442.898743 
	C271.064606,444.091095 251.288940,443.467407 234.403885,458.576599 
	C234.403885,452.197998 233.958801,446.836578 234.512909,441.580475 
	C235.259598,434.497620 236.775879,427.495911 237.835144,420.023071 
	C240.181732,413.836639 242.666138,408.091309 245.126251,402.335571 
	C252.316345,385.513245 262.974731,371.615173 278.986786,362.259613 
	C281.219940,360.954803 283.591766,359.887360 286.724335,358.289185 
	C275.569122,354.610474 265.569214,357.534302 254.326706,359.447662 
	C255.626923,357.012543 256.304016,355.314484 257.337738,353.871979 
	C277.820984,325.287781 304.962830,304.844513 336.517700,290.102966 
	C349.442627,284.064758 362.914917,279.198914 376.126129,273.770386 
	C376.865448,273.466583 377.494354,272.894012 379.169434,271.792206 
	C370.902527,269.412476 363.474762,267.274292 356.046997,265.136139 
	C356.041840,264.755646 356.036682,264.375153 356.031525,263.994659 
	C362.992188,262.306824 369.898621,260.339935 376.922119,258.975464 
	C431.806549,248.312805 487.250885,245.809250 542.956360,248.469376 
	C567.564087,249.644501 591.492432,254.547119 613.688354,265.891479 
	C641.761230,280.239594 656.967773,303.003174 657.796326,334.732697 
	C657.916626,339.338867 659.766541,341.012268 663.422852,343.254242 
	C671.994568,348.510101 679.954224,354.763611 688.168457,360.603699 
	C690.175598,362.030701 692.208923,363.420837 694.525024,364.997742 
	C697.146729,368.347900 699.409119,371.577972 701.811401,374.700317 
	C714.343750,390.988983 721.013184,409.847992 726.064514,429.459137 
	C732.633118,454.961090 736.817139,480.841339 738.020813,507.137329 
	C738.933044,527.064087 739.506775,547.016357 739.688171,566.962219 
	C739.773926,576.401917 738.588867,585.853210 737.880676,596.015015 
	C726.763977,604.342041 721.400024,615.878784 717.215454,628.234375 
	C716.772522,628.025208 716.329590,627.815979 715.886597,627.606750 
	C716.289551,621.081787 716.692505,614.556763 717.416931,608.107666 
	C718.158325,606.864807 718.938782,605.547424 718.943970,604.227051 
	C719.021851,584.356140 718.997803,564.484741 718.997620,544.613525 
	C718.997620,542.734009 718.997620,540.854492 718.997620,538.334473 
	C718.005371,539.691223 717.535339,540.333801 716.830505,540.640076 
	C715.752747,530.864563 715.035217,521.412109 714.042236,511.988708 
	C711.534668,488.192413 706.554504,465.054749 695.921143,443.369598 
	C683.243164,417.514587 662.163269,403.916473 633.922485,402.056274 
	C607.483582,400.314728 580.933594,400.564301 554.620544,404.128693 
	C523.505432,408.343597 492.573730,407.081909 461.515015,403.537537 
	C436.495819,400.682343 411.383392,400.199158 386.438599,404.981628 
	C357.100433,410.606415 336.301300,427.282135 324.108826,454.285767 
	C312.161682,480.746124 307.636780,509.075043 306.494843,537.775635 
	C305.396179,565.389465 305.912231,593.067505 305.703278,620.717224 
	C305.693207,622.051636 305.533783,623.384888 305.403442,625.319763 
	C302.106354,619.006531 299.897614,612.933105 296.125732,608.072754 
	C292.342682,603.197815 287.000549,599.532776 282.341675,595.337463 
z" data-index="4"></path>
<path fill="#FEFEFE" opacity="1.000000" stroke="none" d="
M612.994141,1202.945557 
	C613.440735,1202.974731 613.887329,1203.003906 614.666260,1203.094604 
	C611.898865,1204.066895 608.809753,1205.016479 605.693787,1205.867676 
	C604.590942,1206.169067 603.028137,1205.818726 602.348633,1206.469116 
	C598.224304,1210.416748 593.263733,1208.970459 588.044922,1208.902100 
	C587.710449,1208.446411 587.842041,1208.026489 588.015137,1206.835205 
	C588.062683,1163.717163 588.068848,1121.370605 588.075012,1079.024048 
	C590.254761,1076.686646 592.012451,1073.447998 594.697876,1072.190430 
	C601.257446,1069.118408 607.134460,1072.318481 609.943481,1080.231567 
	C610.295044,1104.416626 610.469482,1127.879272 610.537781,1151.342285 
	C610.584717,1167.486816 610.482483,1183.631836 610.452820,1199.776611 
	C610.449646,1201.499390 609.673767,1203.874146 612.994141,1202.945557 
M598.422913,1205.227295 
	C598.655396,1204.621948 598.887878,1204.016479 599.120361,1203.411133 
	C597.471436,1203.411133 595.822571,1203.411133 594.173645,1203.411133 
	C594.158142,1204.066162 594.142639,1204.721191 594.127136,1205.376099 
	C595.341797,1205.441650 596.556396,1205.507080 598.422913,1205.227295 
M605.522827,1203.313721 
	C604.977417,1202.975586 604.432068,1202.637451 603.886780,1202.299316 
	C603.752319,1202.572998 603.617798,1202.846680 603.483215,1203.120361 
	C604.017395,1203.325195 604.551575,1203.530029 605.522827,1203.313721 
z" data-index="5"></path>
<path fill="#0B1C39" opacity="1.000000" stroke="none" d="
M420.025330,1202.528076 
	C419.272369,1201.680176 418.086365,1200.379150 418.083099,1199.075195 
	C417.985535,1160.184692 418.004944,1121.293945 418.006836,1082.403198 
	C418.006866,1081.738525 418.018799,1081.073730 418.025177,1080.409058 
	C418.503296,1080.508423 418.981415,1080.607788 419.728577,1080.853271 
	C420.053802,1117.869507 420.111053,1154.739380 420.164551,1191.609375 
	C420.169617,1195.097412 420.151123,1198.585449 420.025330,1202.528076 
z" data-index="6"></path>
<path fill="#FED8AC" opacity="1.000000" stroke="none" d="
M281.964478,595.322754 
	C287.000549,599.532776 292.342682,603.197815 296.125732,608.072754 
	C299.897614,612.933105 302.106354,619.006531 305.403442,625.319763 
	C305.533783,623.384888 305.693207,622.051636 305.703278,620.717224 
	C305.912231,593.067505 305.396179,565.389465 306.494843,537.775635 
	C307.636780,509.075043 312.161682,480.746124 324.108826,454.285767 
	C336.301300,427.282135 357.100433,410.606415 386.438599,404.981628 
	C411.383392,400.199158 436.495819,400.682343 461.515015,403.537537 
	C492.573730,407.081909 523.505432,408.343597 554.620544,404.128693 
	C580.933594,400.564301 607.483582,400.314728 633.922485,402.056274 
	C662.163269,403.916473 683.243164,417.514587 695.921143,443.369598 
	C706.554504,465.054749 711.534668,488.192413 714.042236,511.988708 
	C715.035217,521.412109 715.752747,530.864563 716.718750,541.099548 
	C716.926392,563.940796 717.010925,585.986267 717.095459,608.031738 
	C716.692505,614.556763 716.289551,621.081787 715.886597,627.606750 
	C716.329590,627.815979 716.772522,628.025208 717.215454,628.234375 
	C721.400024,615.878784 726.763977,604.342041 737.983643,596.467163 
	C741.230713,595.469727 744.242615,594.321045 747.326843,594.073425 
	C761.402893,592.943298 771.811096,600.881226 775.852356,615.901062 
	C785.787048,652.824524 778.275879,686.688232 756.949524,717.710449 
	C747.090149,732.052246 732.464478,736.216431 715.739502,733.839600 
	C713.363403,733.501892 711.135071,732.123596 708.197815,730.976807 
	C706.107544,739.049072 704.066772,747.014709 701.981079,754.968628 
	C696.023499,777.689087 689.095520,799.969116 675.322815,819.510132 
	C663.835632,835.808289 650.299500,850.111023 634.823303,863.047485 
	C633.453064,864.244263 632.220215,865.167175 630.909363,866.473206 
	C630.831421,866.856323 630.694702,866.799316 630.694702,866.799316 
	C630.694702,866.799316 630.302246,866.743469 630.302246,866.743469 
	C630.302246,866.743469 629.976013,866.968872 629.592651,867.268127 
	C628.110291,868.719482 627.011169,869.871582 625.546936,871.028076 
	C624.270142,871.369080 623.253052,871.546143 622.463074,872.067322 
	C614.430481,877.365295 606.583801,882.960815 598.399231,888.009705 
	C578.415100,900.337585 557.914124,911.603149 534.281494,915.387756 
	C511.391357,919.053467 489.000519,917.195068 467.171112,909.111572 
	C447.243408,901.732300 428.835449,891.585022 411.489471,879.368958 
	C407.907898,876.846558 403.807587,875.060791 399.946350,872.935425 
	C397.262939,870.645447 394.579468,868.355469 391.664948,865.815552 
	C385.901184,860.564758 380.434143,855.488892 374.824371,850.575989 
	C351.145844,829.838806 335.033325,804.250427 326.038177,774.184082 
	C322.183746,761.300659 318.839722,748.264771 315.236755,735.305603 
	C314.888580,734.053345 314.348480,732.854370 313.899811,731.636963 
	C295.516266,738.688110 276.411377,733.293030 265.214081,717.060852 
	C244.470901,686.990417 237.617218,653.927612 246.399033,618.250000 
	C248.994080,607.707214 253.970657,597.775757 265.955200,595.094177 
	C270.902252,593.987244 276.361176,595.167908 281.964478,595.322754 
M564.862671,803.404114 
	C580.441895,791.365845 591.354492,776.278076 594.979675,756.597717 
	C596.458069,748.572021 594.368530,746.806824 586.718994,748.941772 
	C585.447754,749.296570 584.182861,749.674133 582.004944,750.055115 
	C578.533264,750.251648 575.050232,750.331055 571.591797,750.665039 
	C557.081787,752.066223 542.608582,754.088623 528.067383,754.875671 
	C500.777435,756.352722 473.734528,752.718994 446.677338,749.794556 
	C445.708282,749.689697 444.665161,750.270386 442.942261,750.289856 
	C441.048981,749.716003 439.154327,749.146667 437.262726,748.567383 
	C433.432831,747.394531 431.528656,749.067932 431.253052,752.807678 
	C431.132874,754.438721 431.240570,756.128540 431.528442,757.741089 
	C434.653351,775.244568 443.782593,789.289001 456.744873,801.062683 
	C457.474609,801.725464 458.784882,801.749207 459.905701,802.767456 
	C465.285126,806.208252 470.367279,810.282593 476.099274,812.972046 
	C493.838104,821.294922 512.690063,822.282593 531.561890,818.627319 
	C543.414612,816.331604 554.869751,812.046570 564.862671,803.404114 
M438.554382,554.934326 
	C444.547516,555.154785 450.575012,555.830322 456.517548,555.381287 
	C459.043243,555.190430 462.246552,553.145264 463.510742,550.987244 
	C464.318024,549.609192 462.825989,545.374451 461.167847,544.340942 
	C455.891296,541.052246 450.313324,537.642456 444.380371,536.135620 
	C431.461853,532.854675 418.273926,534.149536 405.173889,535.981750 
	C380.233795,539.469910 360.115356,551.274170 344.499481,570.888306 
	C343.085968,572.663696 342.194061,574.854370 341.059937,576.852173 
	C341.372650,577.171204 341.685333,577.490295 341.998047,577.809326 
	C372.118469,562.674133 403.965881,554.955627 438.554382,554.934326 
M632.054321,538.597290 
	C617.478210,534.587891 602.605530,533.028809 587.605957,534.596680 
	C578.505249,535.547913 569.497925,537.739441 562.703796,544.738464 
	C558.741089,548.820740 559.480591,552.584229 564.731689,554.725464 
	C566.344971,555.383301 568.277466,555.375610 570.073120,555.450684 
	C586.326599,556.130737 602.751953,555.540588 618.786438,557.770752 
	C633.095947,559.760925 647.060120,564.561035 661.007629,568.692139 
	C668.355713,570.868591 675.342407,574.265381 682.681641,577.186523 
	C680.142822,565.124023 652.978149,544.359863 632.054321,538.597290 
M454.286743,630.159851 
	C455.264648,630.790649 456.165558,631.683960 457.236328,631.997986 
	C459.500854,632.662048 462.649750,634.144836 463.961700,633.214050 
	C465.467804,632.145386 466.010162,628.788330 465.865356,626.495178 
	C465.408356,619.259094 461.240814,613.773193 456.152191,609.073059 
	C430.518311,585.396179 390.357910,595.070374 375.350739,619.237244 
	C372.678467,623.540588 371.339966,629.047119 370.746552,634.156128 
	C370.202911,638.836487 373.168640,640.035156 377.073059,637.329651 
	C378.976471,636.010803 380.686005,634.406494 382.448792,632.891296 
	C395.270874,621.870361 409.727844,616.389038 426.961639,618.367126 
	C437.176239,619.539551 445.379730,624.538147 454.286743,630.159851 
M573.368652,627.778503 
	C591.714600,614.947449 610.892212,614.539734 630.270203,624.797546 
	C636.352112,628.017029 641.467407,633.048035 647.076172,637.180664 
	C651.023071,640.088684 653.813477,639.118408 653.453735,634.373901 
	C653.089172,629.565369 651.894897,624.408203 649.571289,620.234924 
	C641.811951,606.298950 628.712097,599.739136 613.747314,596.381531 
	C594.182007,591.991516 572.754761,600.222107 562.618530,615.690369 
	C559.747498,620.071716 558.452148,624.732056 559.027710,629.883179 
	C559.466003,633.806030 561.812622,635.077332 565.290771,633.154114 
	C567.901428,631.710571 570.284119,629.854919 573.368652,627.778503 
M299.216797,662.249329 
	C295.016510,653.831299 290.988434,645.321350 286.557434,637.026550 
	C283.424408,631.161560 277.828064,627.933838 271.897156,625.551575 
	C265.590515,623.018250 260.207336,625.738098 259.235657,632.394714 
	C258.281830,638.928955 257.828156,645.670532 258.307159,652.237061 
	C258.688782,657.467957 260.805054,662.572266 262.151276,667.732727 
	C263.957062,666.188721 264.599701,664.727905 265.330383,663.312500 
	C268.238556,657.678833 272.216675,656.469238 277.599731,659.869202 
	C279.523041,661.083984 281.535980,662.664185 282.641815,664.578003 
	C287.371307,672.763062 291.822296,681.110901 296.278625,689.450806 
	C297.980408,692.635620 299.424164,695.958191 300.985504,699.218018 
	C301.483826,699.042053 301.982147,698.866089 302.480499,698.690125 
	C306.105804,686.483459 303.238312,674.709412 299.216797,662.249329 
M720.167358,691.859009 
	C720.861694,693.877563 721.556030,695.896057 722.711670,699.255676 
	C723.968628,696.610046 724.575012,695.491699 725.045471,694.318970 
	C729.498352,683.219299 734.229126,672.321838 741.956421,662.931458 
	C747.707886,655.941956 754.427429,656.387756 758.236145,664.455933 
	C758.820923,665.694580 759.458984,666.908020 760.072449,668.133179 
	C760.562683,668.054565 761.052856,667.975952 761.543091,667.897339 
	C764.736511,655.214050 767.566833,642.482239 762.611267,629.415344 
	C760.622986,624.172546 755.839661,623.756714 751.832886,625.452576 
	C747.252014,627.391296 742.447205,630.160339 739.297180,633.885559 
	C725.434387,650.279846 720.420227,669.910034 720.167358,691.859009 
M514.879456,712.546204 
	C502.694092,714.628357 491.082489,711.396790 479.263977,707.717651 
	C480.171539,713.869385 483.159302,718.042664 488.895050,721.963074 
	C501.045624,730.268066 522.928711,730.505127 535.348389,722.232788 
	C538.068115,720.421204 541.033813,718.207703 542.449951,715.443542 
	C543.682251,713.038208 542.886292,709.593811 542.986633,706.608582 
	C540.582520,706.594360 538.061462,706.101990 535.796204,706.655823 
	C529.053406,708.304199 522.411133,710.363770 514.879456,712.546204 
z" data-index="7"></path>
<path fill="#F6AC68" opacity="1.000000" stroke="none" d="
M399.807281,873.394714 
	C403.807587,875.060791 407.907898,876.846558 411.489471,879.368958 
	C428.835449,891.585022 447.243408,901.732300 467.171112,909.111572 
	C489.000519,917.195068 511.391357,919.053467 534.281494,915.387756 
	C557.914124,911.603149 578.415100,900.337585 598.399231,888.009705 
	C606.583801,882.960815 614.430481,877.365295 622.463074,872.067322 
	C623.253052,871.546143 624.270142,871.369080 625.644714,871.484375 
	C625.957336,884.955505 625.807068,897.974670 625.337891,911.062622 
	C623.103455,912.701965 621.319763,914.477600 619.249939,915.808167 
	C609.752258,921.913696 600.263611,928.041870 590.606506,933.889099 
	C571.760132,945.300232 551.960693,954.493774 530.258789,959.135437 
	C511.724518,963.099548 493.465790,961.575012 475.821045,955.243286 
	C449.983459,945.971497 426.856323,931.545471 404.661896,915.632202 
	C402.758850,914.267700 401.640900,911.149475 401.132446,908.647888 
	C400.296631,904.535461 400.258667,900.260864 399.680756,896.090698 
	C399.477203,896.126648 399.066315,896.172363 399.066315,896.172363 
	C399.266937,888.732910 399.467590,881.293396 399.807281,873.394714 
z" data-index="8"></path>
<path fill="#1C2C42" opacity="1.000000" stroke="none" d="
M625.656799,910.993896 
	C625.807068,897.974670 625.957336,884.955505 626.009827,871.479980 
	C627.011169,869.871582 628.110291,868.719482 629.541260,867.459595 
	C626.715210,873.091736 627.404907,879.399597 626.790283,885.594055 
	C626.177185,891.773193 628.915588,895.022583 633.622925,897.822693 
	C648.370667,906.595398 657.892700,919.458557 661.049072,936.225037 
	C663.719971,950.412781 662.007751,964.382874 656.744507,978.127686 
	C651.772583,991.111755 645.628052,1003.268921 636.930908,1014.058899 
	C622.615601,1031.818848 605.963928,1046.695190 584.769287,1055.996094 
	C576.355530,1059.688354 568.398010,1064.452637 559.901428,1067.916138 
	C546.615723,1073.331909 532.971069,1077.752563 518.381958,1077.975952 
	C516.752441,1078.000977 515.117249,1077.657837 513.231323,1077.046875 
	C512.977966,1076.608276 512.990479,1076.353027 513.363525,1076.289307 
	C524.386047,1073.104858 535.276245,1070.625854 545.638855,1066.739868 
	C573.848755,1056.161133 597.497131,1039.230347 615.270264,1014.568054 
	C622.739502,1004.203674 628.239807,993.307068 626.222900,979.915161 
	C625.731079,976.649353 625.938599,973.269897 625.921021,969.942200 
	C625.817139,950.292847 625.741760,930.643372 625.656799,910.993896 
z" data-index="9"></path>
<path fill="#1B2B42" opacity="1.000000" stroke="none" d="
M512.990479,1076.353027 
	C512.990479,1076.353027 512.977966,1076.608276 512.952515,1076.731689 
	C505.117767,1077.081787 497.562164,1075.952271 490.187195,1073.224609 
	C479.694183,1069.343994 469.062439,1065.839600 458.556488,1061.992798 
	C430.133820,1051.585938 406.554901,1034.062256 386.447784,1011.799438 
	C373.680756,997.663696 365.013031,981.068054 362.391205,962.103699 
	C360.462189,948.150330 362.275604,934.649292 370.108032,922.007935 
	C377.241486,910.494751 387.326080,902.951843 398.786102,896.222961 
	C399.066315,896.172363 399.477203,896.126648 399.610291,896.548706 
	C399.747101,898.802612 399.732483,900.634705 399.757294,902.466248 
	C400.099762,927.743835 400.887024,953.025879 400.627136,978.297180 
	C400.474609,993.129944 404.416534,1005.981873 413.336243,1017.760986 
	C431.196228,1041.346191 454.633728,1057.049316 482.103333,1067.011475 
	C492.200348,1070.673218 502.683472,1073.270386 512.990479,1076.353027 
z" data-index="10"></path>
<path fill="#172845" opacity="1.000000" stroke="none" d="
M612.996765,1202.480469 
	C609.673767,1203.874146 610.449646,1201.499390 610.452820,1199.776611 
	C610.482483,1183.631836 610.584717,1167.486816 610.537781,1151.342285 
	C610.469482,1127.879272 610.295044,1104.416626 610.201294,1080.487549 
	C614.258728,1080.038696 612.948303,1083.119629 612.951599,1085.117065 
	C613.015503,1124.083008 612.999268,1163.049194 612.996765,1202.480469 
z" data-index="11"></path>
<path fill="#0B1C39" opacity="1.000000" stroke="none" d="
M587.747070,1078.926025 
	C588.068848,1121.370605 588.062683,1163.717163 587.932678,1206.515747 
	C587.208130,1205.636353 586.085510,1204.305908 586.082520,1202.973267 
	C585.992676,1162.537476 586.003601,1122.101562 586.074890,1081.665771 
	C586.076599,1080.719116 586.951477,1079.773926 587.747070,1078.926025 
z" data-index="12"></path>
<path fill="#1C2C42" opacity="1.000000" stroke="none" d="
M630.812012,866.784790 
	C630.933838,866.908447 631.075012,867.103516 631.216187,867.298645 
	C631.117920,867.230774 631.019653,867.162964 630.808044,866.947266 
	C630.694702,866.799316 630.831421,866.856323 630.812012,866.784790 
z" data-index="13"></path>
<path fill="#251212" opacity="1.000000" stroke="none" d="
M717.416931,608.107666 
	C717.010925,585.986267 716.926392,563.940796 716.953613,541.435852 
	C717.535339,540.333801 718.005371,539.691223 718.997620,538.334473 
	C718.997620,540.854492 718.997620,542.734009 718.997620,544.613525 
	C718.997803,564.484741 719.021851,584.356140 718.943970,604.227051 
	C718.938782,605.547424 718.158325,606.864807 717.416931,608.107666 
z" data-index="14"></path>
<path fill="#FDFDFD" opacity="1.000000" stroke="none" d="
M598.096985,1205.399902 
	C596.556396,1205.507080 595.341797,1205.441650 594.127136,1205.376099 
	C594.142639,1204.721191 594.158142,1204.066162 594.173645,1203.411133 
	C595.822571,1203.411133 597.471436,1203.411133 599.120361,1203.411133 
	C598.887878,1204.016479 598.655396,1204.621948 598.096985,1205.399902 
z" data-index="15"></path>
<path fill="#FDFDFD" opacity="1.000000" stroke="none" d="
M605.304260,1203.524292 
	C604.551575,1203.530029 604.017395,1203.325195 603.483276,1203.120361 
	C603.617798,1202.846680 603.752319,1202.572998 603.886719,1202.299316 
	C604.432068,1202.637451 604.977417,1202.975586 605.304260,1203.524292 
z" data-index="16"></path>
<path fill="#FCFBFA" opacity="1.000000" stroke="none" d="
M443.656555,750.531616 
	C444.665161,750.270386 445.708282,749.689697 446.677338,749.794556 
	C473.734528,752.718994 500.777435,756.352722 528.067383,754.875671 
	C542.608582,754.088623 557.081787,752.066223 571.591797,750.665039 
	C575.050232,750.331055 578.533264,750.251648 582.464478,750.440063 
	C582.019592,754.742737 581.506470,758.810852 580.078430,762.527527 
	C579.059998,765.178223 577.310364,768.630615 575.026062,769.524292 
	C565.338074,773.314331 555.513000,777.107483 545.395996,779.370178 
	C527.118286,783.458130 508.431122,784.648376 489.968170,780.903748 
	C477.554932,778.386169 465.428162,774.373840 453.276672,770.689026 
	C448.490143,769.237610 445.672852,765.675781 445.262146,760.360962 
	C445.007263,757.062866 444.210236,753.806641 443.656555,750.531616 
z" data-index="17"></path>
<path fill="#3E2929" opacity="1.000000" stroke="none" d="
M443.299408,750.410767 
	C444.210236,753.806641 445.007263,757.062866 445.262146,760.360962 
	C445.672852,765.675781 448.490143,769.237610 453.276672,770.689026 
	C465.428162,774.373840 477.554932,778.386169 489.968170,780.903748 
	C508.431122,784.648376 527.118286,783.458130 545.395996,779.370178 
	C555.513000,777.107483 565.338074,773.314331 575.026062,769.524292 
	C577.310364,768.630615 579.059998,765.178223 580.078430,762.527527 
	C581.506470,758.810852 582.019592,754.742737 582.919556,750.433105 
	C584.182861,749.674133 585.447754,749.296570 586.718994,748.941772 
	C594.368530,746.806824 596.458069,748.572021 594.979675,756.597717 
	C591.354492,776.278076 580.441895,791.365845 564.290771,803.261475 
	C558.155762,800.649963 552.803711,797.090515 546.980835,795.963806 
	C537.900085,794.206665 528.485046,793.299194 519.238464,793.471375 
	C503.310638,793.767944 487.370148,794.825806 471.510590,796.350708 
	C467.469391,796.739319 463.712494,800.083923 459.824951,802.070374 
	C458.784882,801.749207 457.474609,801.725464 456.744873,801.062683 
	C443.782593,789.289001 434.653351,775.244568 431.528442,757.741089 
	C431.240570,756.128540 431.132874,754.438721 431.253052,752.807678 
	C431.528656,749.067932 433.432831,747.394531 437.262726,748.567383 
	C439.154327,749.146667 441.048981,749.716003 443.299408,750.410767 
z" data-index="18"></path>
<path fill="#3E2A29" opacity="1.000000" stroke="none" d="
M438.080444,554.936157 
	C403.965881,554.955627 372.118469,562.674133 341.998047,577.809326 
	C341.685333,577.490295 341.372650,577.171204 341.059937,576.852173 
	C342.194061,574.854370 343.085968,572.663696 344.499481,570.888306 
	C360.115356,551.274170 380.233795,539.469910 405.173889,535.981750 
	C418.273926,534.149536 431.461853,532.854675 444.380371,536.135620 
	C450.313324,537.642456 455.891296,541.052246 461.167847,544.340942 
	C462.825989,545.374451 464.318024,549.609192 463.510742,550.987244 
	C462.246552,553.145264 459.043243,555.190430 456.517548,555.381287 
	C450.575012,555.830322 444.547516,555.154785 438.080444,554.936157 
z" data-index="19"></path>
<path fill="#3E2A28" opacity="1.000000" stroke="none" d="
M632.447327,538.687256 
	C652.978149,544.359863 680.142822,565.124023 682.681641,577.186523 
	C675.342407,574.265381 668.355713,570.868591 661.007629,568.692139 
	C647.060120,564.561035 633.095947,559.760925 618.786438,557.770752 
	C602.751953,555.540588 586.326599,556.130737 570.073120,555.450684 
	C568.277466,555.375610 566.344971,555.383301 564.731689,554.725464 
	C559.480591,552.584229 558.741089,548.820740 562.703796,544.738464 
	C569.497925,537.739441 578.505249,535.547913 587.605957,534.596680 
	C602.605530,533.028809 617.478210,534.587891 632.447327,538.687256 
z" data-index="20"></path>
<path fill="#3D2828" opacity="1.000000" stroke="none" d="
M453.978027,629.958923 
	C445.379730,624.538147 437.176239,619.539551 426.961639,618.367126 
	C409.727844,616.389038 395.270874,621.870361 382.448792,632.891296 
	C380.686005,634.406494 378.976471,636.010803 377.073059,637.329651 
	C373.168640,640.035156 370.202911,638.836487 370.746552,634.156128 
	C371.339966,629.047119 372.678467,623.540588 375.350739,619.237244 
	C390.357910,595.070374 430.518311,585.396179 456.152191,609.073059 
	C461.240814,613.773193 465.408356,619.259094 465.865356,626.495178 
	C466.010162,628.788330 465.467804,632.145386 463.961700,633.214050 
	C462.649750,634.144836 459.500854,632.662048 457.236328,631.997986 
	C456.165558,631.683960 455.264648,630.790649 453.978027,629.958923 
z" data-index="21"></path>
<path fill="#3D2928" opacity="1.000000" stroke="none" d="
M573.068481,627.980591 
	C570.284119,629.854919 567.901428,631.710571 565.290771,633.154114 
	C561.812622,635.077332 559.466003,633.806030 559.027710,629.883179 
	C558.452148,624.732056 559.747498,620.071716 562.618530,615.690369 
	C572.754761,600.222107 594.182007,591.991516 613.747314,596.381531 
	C628.712097,599.739136 641.811951,606.298950 649.571289,620.234924 
	C651.894897,624.408203 653.089172,629.565369 653.453735,634.373901 
	C653.813477,639.118408 651.023071,640.088684 647.076172,637.180664 
	C641.467407,633.048035 636.352112,628.017029 630.270203,624.797546 
	C610.892212,614.539734 591.714600,614.947449 573.068481,627.980591 
z" data-index="22"></path>
<path fill="#E6685F" opacity="1.000000" stroke="none" d="
M459.865326,802.418945 
	C463.712494,800.083923 467.469391,796.739319 471.510590,796.350708 
	C487.370148,794.825806 503.310638,793.767944 519.238464,793.471375 
	C528.485046,793.299194 537.900085,794.206665 546.980835,795.963806 
	C552.803711,797.090515 558.155762,800.649963 563.968018,803.418762 
	C554.869751,812.046570 543.414612,816.331604 531.561890,818.627319 
	C512.690063,822.282593 493.838104,821.294922 476.099274,812.972046 
	C470.367279,810.282593 465.285126,806.208252 459.865326,802.418945 
z" data-index="23"></path>
<path fill="#F6AD69" opacity="1.000000" stroke="none" d="
M299.358551,662.621338 
	C303.238312,674.709412 306.105804,686.483459 302.480499,698.690125 
	C301.982147,698.866089 301.483826,699.042053 300.985504,699.218018 
	C299.424164,695.958191 297.980408,692.635620 296.278625,689.450806 
	C291.822296,681.110901 287.371307,672.763062 282.641815,664.578003 
	C281.535980,662.664185 279.523041,661.083984 277.599731,659.869202 
	C272.216675,656.469238 268.238556,657.678833 265.330383,663.312500 
	C264.599701,664.727905 263.957062,666.188721 262.151276,667.732727 
	C260.805054,662.572266 258.688782,657.467957 258.307159,652.237061 
	C257.828156,645.670532 258.281830,638.928955 259.235657,632.394714 
	C260.207336,625.738098 265.590515,623.018250 271.897156,625.551575 
	C277.828064,627.933838 283.424408,631.161560 286.557434,637.026550 
	C290.988434,645.321350 295.016510,653.831299 299.358551,662.621338 
z" data-index="24"></path>
<path fill="#F6AD69" opacity="1.000000" stroke="none" d="
M720.120422,691.424988 
	C720.420227,669.910034 725.434387,650.279846 739.297180,633.885559 
	C742.447205,630.160339 747.252014,627.391296 751.832886,625.452576 
	C755.839661,623.756714 760.622986,624.172546 762.611267,629.415344 
	C767.566833,642.482239 764.736511,655.214050 761.543091,667.897339 
	C761.052856,667.975952 760.562683,668.054565 760.072449,668.133179 
	C759.458984,666.908020 758.820923,665.694580 758.236145,664.455933 
	C754.427429,656.387756 747.707886,655.941956 741.956421,662.931458 
	C734.229126,672.321838 729.498352,683.219299 725.045471,694.318970 
	C724.575012,695.491699 723.968628,696.610046 722.711670,699.255676 
	C721.556030,695.896057 720.861694,693.877563 720.120422,691.424988 
z" data-index="25"></path>
<path fill="#F6AD6A" opacity="1.000000" stroke="none" d="
M515.304504,712.404419 
	C522.411133,710.363770 529.053406,708.304199 535.796204,706.655823 
	C538.061462,706.101990 540.582520,706.594360 542.986633,706.608582 
	C542.886292,709.593811 543.682251,713.038208 542.449951,715.443542 
	C541.033813,718.207703 538.068115,720.421204 535.348389,722.232788 
	C522.928711,730.505127 501.045624,730.268066 488.895050,721.963074 
	C483.159302,718.042664 480.171539,713.869385 479.263977,707.717651 
	C491.082489,711.396790 502.694092,714.628357 515.304504,712.404419 
z" data-index="26"></path>
<path fill="#FED8AC" opacity="1.000000" stroke="none" d="
M513.363525,1076.289307 
	C502.683472,1073.270386 492.200348,1070.673218 482.103333,1067.011475 
	C454.633728,1057.049316 431.196228,1041.346191 413.336243,1017.760986 
	C404.416534,1005.981873 400.474609,993.129944 400.627136,978.297180 
	C400.887024,953.025879 400.099762,927.743835 399.757294,902.466248 
	C399.732483,900.634705 399.747101,898.802612 399.813843,896.512695 
	C400.258667,900.260864 400.296631,904.535461 401.132446,908.647888 
	C401.640900,911.149475 402.758850,914.267700 404.661896,915.632202 
	C426.856323,931.545471 449.983459,945.971497 475.821045,955.243286 
	C493.465790,961.575012 511.724518,963.099548 530.258789,959.135437 
	C551.960693,954.493774 571.760132,945.300232 590.606506,933.889099 
	C600.263611,928.041870 609.752258,921.913696 619.249939,915.808167 
	C621.319763,914.477600 623.103455,912.701965 625.337891,911.062622 
	C625.741760,930.643372 625.817139,950.292847 625.921021,969.942200 
	C625.938599,973.269897 625.731079,976.649353 626.222900,979.915161 
	C628.239807,993.307068 622.739502,1004.203674 615.270264,1014.568054 
	C597.497131,1039.230347 573.848755,1056.161133 545.638855,1066.739868 
	C535.276245,1070.625854 524.386047,1073.104858 513.363525,1076.289307 
z" data-index="27"></path>
</svg>